<svg width="85" height="86" viewBox="0 0 85 86" fill="none" xmlns="http://www.w3.org/2000/svg">
<path d="M68.6357 9.2688L56.0878 21.6847L56.0406 21.6518C59.1378 23.6596 61.7701 26.3222 63.7433 29.4467L76.2981 17.0307C75.0664 15.4116 73.7242 13.8855 72.283 12.4677C71.1278 11.3341 69.9091 10.2699 68.6357 9.2688Z" fill="#CA3631"/>
<path d="M20.7977 56.5995C20.8509 56.6891 20.9033 56.7787 20.9609 56.8639L8.90247 69.1067C10.0295 70.541 11.3309 71.6611 12.6285 72.9436C13.9269 74.2173 15.3058 75.4075 16.7562 76.5107L28.7375 64.5121C28.7817 64.5307 28.8154 64.5562 28.8548 64.5787L28.8561 64.5752C25.6118 62.5575 22.8514 59.8265 20.7977 56.5995Z" fill="white"/>
<path d="M63.766 56.4957C63.7846 56.4611 63.7998 56.4329 63.8193 56.4044C63.8175 56.4044 63.8175 56.3983 63.8175 56.3983C61.8227 59.5981 59.1411 62.3239 55.9712 64.3654C56.021 64.3317 56.0716 64.3005 56.1192 64.2724L68.2378 76.687C69.8431 75.4604 71.357 74.1265 72.7723 72.6887C73.9136 71.5297 74.9852 70.2992 75.9906 69.0133L63.766 56.4957Z" fill="white"/>
<path d="M16.2468 9.05188C14.7986 10.1863 13.4266 11.4107 12.1399 12.7173C10.8735 14.0084 9.60968 15.6206 8.51208 17.0627L20.9423 29.1462L20.9241 29.1782C22.9263 26.0884 25.5859 23.4596 28.7029 21.492L16.2468 9.05188Z" fill="white"/>
<path d="M78.9128 64.7739C82.8345 58.2684 85.0652 50.628 84.9985 42.4783C84.9336 34.7657 82.8228 27.5478 79.1885 21.334L66.1139 34.2736C67.0851 36.9306 67.5435 40.0303 67.5668 43.0206C67.5932 46.2589 67.0942 49.1158 66.0131 51.968C66.0537 51.8698 66.0892 51.765 66.1282 51.6681L78.9224 64.7587L78.9128 64.7739Z" fill="white"/>
<path d="M21.0704 79.3916C27.4621 83.1193 34.9094 85.2318 42.8458 85.1678C50.5727 85.1037 57.8027 82.9895 64.0208 79.3375L51.3673 66.7056C48.5991 67.7742 45.598 68.3641 42.4563 68.3913C39.3362 68.4169 36.3437 67.8824 33.5742 66.8722L21.0704 79.3916Z" fill="white"/>
<path d="M64.4636 6.09751C57.9537 2.17109 50.3086 -0.0647889 42.149 0.00143041C34.2212 0.0689482 26.822 2.29097 20.4961 6.11612L20.4987 6.11352L33.5253 19.1193L33.5214 19.1245C36.1793 18.1516 39.0457 17.6097 42.0364 17.5863C45.3084 17.5591 48.4437 18.1555 51.3262 19.2574L64.4636 6.09751Z" fill="white"/>
<path d="M6.44852 64.7302C2.42169 58.2905 0.0676586 50.6883 0.00143924 42.5368C-0.0613176 34.8216 1.93089 27.573 5.46562 21.3042L18.9164 34.0244C17.988 36.6935 17.4959 39.5678 17.5206 42.558C17.547 45.7915 18.1784 48.8822 19.3063 51.7205C19.263 51.6158 19.2276 51.5184 19.1851 51.4137L6.439 64.7164L6.44852 64.7302Z" fill="white"/>
<path d="M28.0594 30.9194H31.3674L38.0149 46.5217L44.5355 30.9194H47.8543V54.8558H44.3446V39.9279H44.265L39.4124 51.4228H36.4853L31.6331 39.9279H31.5695V54.8558H28.0594V30.9194Z" fill="white"/>
<path d="M44.2965 30.9194H52.7007C53.6127 30.9194 54.493 31.0073 55.3426 31.1826C56.1913 31.4124 57.0509 31.8829 57.9208 32.594C58.6518 33.1302 59.2448 33.8967 59.6992 34.8922C60.1762 35.8556 60.4142 36.993 60.4142 38.307C60.4142 40.0798 59.8092 41.6941 58.5995 43.1501C57.3577 44.6809 55.543 45.4695 53.1556 45.5128H47.8066V54.8562H44.2969V30.9194H44.2965ZM47.8061 42.1014H53.0167C54.3229 42.0785 55.3049 41.6617 55.9637 40.8476C56.5908 40.056 56.9046 39.1765 56.9046 38.2092C56.9046 37.4063 56.7769 36.7303 56.5216 36.1798C56.2562 35.6855 55.884 35.2951 55.4066 35.009C54.6839 34.5368 53.8446 34.3118 52.8894 34.3334H47.8066V42.1014H47.8061Z" fill="white"/>
</svg>
