<svg width="41" height="42" viewBox="0 0 41 42" fill="none" xmlns="http://www.w3.org/2000/svg">
<path d="M33.1063 4.47852L27.0538 10.4674L27.0312 10.4515C28.525 11.42 29.7949 12.7043 30.7464 14.2114L36.8025 8.22251C36.2082 7.44152 35.5608 6.70542 34.8656 6.0215C34.3084 5.47474 33.7207 4.96139 33.1063 4.47852Z" fill="#CA3631"/>
<path d="M10.0319 27.3087C10.0576 27.3519 10.0828 27.3954 10.1106 27.4365L4.29419 33.3416C4.83781 34.0335 5.46557 34.574 6.09145 35.1923C6.71775 35.8067 7.38287 36.381 8.08244 36.913L13.8617 31.1256C13.883 31.1343 13.8993 31.1467 13.9183 31.1577L13.9189 31.1558C12.3538 30.1828 11.0223 28.8653 10.0319 27.3087Z" fill="#2E2E2E"/>
<path d="M30.7577 27.2586C30.7664 27.2421 30.774 27.2283 30.7833 27.2145C30.7823 27.2145 30.7823 27.2118 30.7823 27.2118C29.8201 28.7552 28.5266 30.07 26.9978 31.0545C27.0218 31.0383 27.0462 31.0234 27.0692 31.0099L32.9144 36.9981C33.6887 36.4062 34.4192 35.7628 35.1019 35.0695C35.6522 34.5104 36.1691 33.9167 36.654 33.2967L30.7577 27.2586Z" fill="#2E2E2E"/>
<path d="M7.8368 4.37402C7.13827 4.9212 6.47649 5.51179 5.85583 6.14206C5.24498 6.7648 4.63539 7.54245 4.10596 8.23806L10.1017 14.0666L10.0929 14.082C11.0587 12.5917 12.3415 11.3236 13.8451 10.3746L7.8368 4.37402Z" fill="#2E2E2E"/>
<path d="M38.0638 31.2518C39.9554 28.1138 41.0314 24.4285 40.9992 20.4972C40.9679 16.777 39.9498 13.2955 38.1968 10.2982L31.89 16.5397C32.3585 17.8211 32.5795 19.3165 32.5908 20.7588C32.6035 22.3206 32.3628 23.6989 31.8416 25.0748C31.861 25.0274 31.8781 24.9769 31.8969 24.9302L38.0684 31.2443L38.0638 31.2518Z" fill="#502F7E"/>
<path d="M10.1633 38.3023C13.2464 40.1006 16.8386 41.1194 20.6667 41.0887C24.3938 41.0578 27.881 40.0378 30.8806 38.2765L24.7769 32.1832C23.4416 32.6989 21.9943 32.9834 20.4786 32.9966C18.9739 33.0087 17.5304 32.7511 16.1946 32.2636L10.1633 38.3023Z" fill="#502F7E"/>
<path d="M31.0941 2.94888C27.954 1.05497 24.2666 -0.0235164 20.3305 0.00863346C16.5066 0.0412008 12.9375 1.113 9.88623 2.95807L9.88748 2.95682L16.1709 9.23021L16.169 9.23272C17.451 8.76341 18.8337 8.50204 20.2765 8.49077C21.8545 8.47762 23.3668 8.76529 24.7572 9.29681L31.0941 2.94888Z" fill="#502F7E"/>
<path d="M3.11047 31.2306C1.16791 28.1244 0.0326448 24.4574 0.000703686 20.5255C-0.029776 16.8041 0.931171 13.3077 2.63637 10.2839L9.12437 16.4195C8.67657 17.707 8.4392 19.0934 8.4511 20.5358C8.46384 22.0955 8.76843 23.5863 9.31247 24.9553C9.29159 24.9048 9.27447 24.8578 9.25401 24.8073L3.10588 31.2241L3.11047 31.2306Z" fill="#502F7E"/>
<path d="M13.5344 14.9218H15.13L18.3364 22.4477L21.4817 14.9218H23.0827V26.4675H21.3896V19.2672H21.3512L19.0105 24.8118H17.5987L15.258 19.2672H15.2275V26.4675H13.5344V14.9218Z" fill="#502F7E"/>
<path d="M21.3665 14.9218H25.4203C25.8603 14.9218 26.285 14.9641 26.6946 15.0487C27.104 15.1595 27.5186 15.3865 27.9382 15.7295C28.2906 15.9881 28.5766 16.3578 28.796 16.838C29.0258 17.3027 29.1407 17.8514 29.1407 18.485C29.1407 19.3403 28.849 20.1188 28.2655 20.821C27.6664 21.5597 26.791 21.9398 25.6395 21.9609H23.0593V26.4675H21.3665V14.9218ZM23.0593 20.3154H25.5727C26.2027 20.3046 26.6766 20.1033 26.9943 19.7106C27.2966 19.3288 27.448 18.9046 27.448 18.438C27.448 18.0507 27.3864 17.7246 27.2632 17.4591C27.1353 17.2207 26.9559 17.0324 26.7255 16.8944C26.3768 16.6666 25.9722 16.5581 25.5113 16.5685H23.0595V20.3154H23.0593Z" fill="#502F7E"/>
</svg>
