<svg width="19" height="17" viewBox="0 0 19 17" fill="none" xmlns="http://www.w3.org/2000/svg">
<path d="M4.82917 11.7216L7.20417 12.4201L6.49166 16.3791C6.4125 16.7673 6.09583 17 5.7 17H3.95833C3.48333 17 3.16667 16.6895 3.16667 16.2237V11.5662H4.11666C4.35416 11.6438 4.59167 11.644 4.82917 11.7216ZM4.11666 4.65756H1.58333C0.7125 4.65756 0 5.35619 0 6.21007V8.53885C0 9.39274 0.7125 10.0914 1.58333 10.0914H4.11666C4.5125 10.0914 4.90833 10.169 5.30416 10.2466L15.0417 13.1964V1.55252L5.30416 4.50234C4.90833 4.57997 4.5125 4.65756 4.11666 4.65756ZM18.2083 0H17.4167C16.9417 0 16.625 0.310504 16.625 0.776259V13.9727C16.625 14.4384 16.9417 14.7489 17.4167 14.7489H18.2083C18.6833 14.7489 19 14.4384 19 13.9727V0.776259C19 0.310504 18.6833 0 18.2083 0Z" fill="#A9A9A9"/>
</svg>
