<svg width="24" height="22" viewBox="0 0 24 22" fill="none" xmlns="http://www.w3.org/2000/svg">
<path d="M6.10001 15.1001L9.10001 16L8.2 21.1001C8.1 21.6001 7.7 21.8999 7.2 21.8999H5C4.4 21.8999 4 21.4999 4 20.8999V14.8999H5.2C5.5 14.9999 5.80001 15.0001 6.10001 15.1001ZM5.2 6H2C0.9 6 0 6.9 0 8V11C0 12.1 0.9 13 2 13H5.2C5.7 13 6.2 13.1 6.7 13.2L19 17V2L6.7 5.80005C6.2 5.90005 5.7 6 5.2 6ZM23 0H22C21.4 0 21 0.4 21 1V18C21 18.6 21.4 19 22 19H23C23.6 19 24 18.6 24 18V1C24 0.4 23.6 0 23 0Z" fill="#4D0685"/>
</svg>
