<svg width="23" height="24" viewBox="0 0 26 23" fill="none" xmlns="http://www.w3.org/2000/svg">
    <path d="M10 21.5C10 22.3 9.3 23 8.5 23C7.7 23 7 22.3 7 21.5C7 20.7 7.7 20 8.5 20C9.3 20 10 20.7 10 21.5ZM18.5 20C17.7 20 17 20.7 17 21.5C17 22.3 17.7 23 18.5 23C19.3 23 20 22.3 20 21.5C20 20.7 19.3 20 18.5 20ZM25 3.80005L23 12.8C22.8 13.5 22.2 14 21.5 14H8.8L9.2 16H20C20.6 16 21 16.4 21 17V18C21 18.6 20.6 19 20 19H8C7.3 19 6.7 18.5 6.5 17.8L3.3 3H1C0.4 3 0 2.6 0 2V1C0 0.4 0.4 0 1 0H4.5C5.2 0 5.8 0.500012 6 1.20001L6.2 2H23.6C24.1 2 24.5 2.19998 24.8 2.59998C25.1 2.99998 25.1 3.40005 25 3.80005ZM21.6 5H6.8L8.1 11H20.3L21.6 5Z"
          fill="#C4C4C4"/>
</svg>
