<svg width="30" height="20" viewBox="0 0 30 20" fill="none" xmlns="http://www.w3.org/2000/svg">
<path d="M29.3 8.39999C27.2 5.99999 21.7 0.5 15 0.5C8.29998 0.5 2.69998 5.99999 0.699976 8.39999C-0.100024 9.29999 -0.100024 10.7 0.699976 11.7C2.79998 14.1 8.29998 19.6 15 19.6C21.7 19.6 27.3 14.1 29.3 11.7C30.1 10.7 30.1 9.29999 29.3 8.39999ZM8.19998 14.3C5.89998 12.9 4.09998 11.1 3.19998 10C4.09998 9 5.89998 7.20001 8.19998 5.70001C7.39998 6.90001 6.99998 8.4 6.99998 10C6.99998 11.6 7.49998 13 8.19998 14.3ZM15 16C11.7 16 8.99998 13.3 8.99998 10C8.99998 6.7 11.7 4 15 4C18.3 4 21 6.7 21 10C21 13.3 18.3 16 15 16ZM21.8 14.3C22.6 13.1 23 11.6 23 10C23 8.4 22.5 7.00001 21.8 5.70001C24.1 7.10001 25.9 8.9 26.8 10C25.8 11 24 12.8 21.8 14.3ZM18 10C18 11.7 16.7 13 15 13C13.3 13 12 11.7 12 10C12 9.6 12.1 9.3 12.2 9C12.3 9 12.4 9 12.5 9C13.3 9 14 8.3 14 7.5C14 7.4 14 7.30001 14 7.20001C14.3 7.10001 14.7 7 15 7C16.7 7 18 8.3 18 10Z" fill="#C4C4C4"/>
</svg>
