<svg width="24" height="24" viewBox="0 0 24 24" fill="none" xmlns="http://www.w3.org/2000/svg">
    <path d="M6 10H2V4.5C2 4.2 2.2 4 2.5 4H5.5C5.8 4 6 4.2 6 4.5V10ZM24 16.5V23.5C24 23.8 23.8 24 23.5 24H0.5C0.2 24 0 23.8 0 23.5V12.5C0 12.2 0.2 12 0.5 12H17.5C17.8 12 18 12.2 18 12.5V19H20V16.5C20 16.2 20.2 16 20.5 16H23.5C23.8 16 24 16.2 24 16.5ZM5 14.2002C5 14.1002 4.9 14 4.8 14H2.3C2.2 14 2.1 14.1002 2.1 14.2002V15.7002C2.1 15.8002 2.2 15.8999 2.3 15.8999H4.8C4.9 15.8999 5 15.8002 5 15.7002V14.2002ZM10 14.2002C10 14.1002 9.9 14 9.8 14H7.3C7.2 14 7.1 14.1002 7.1 14.2002V15.7002C7.1 15.8002 7.2 15.8999 7.3 15.8999H9.8C9.9 15.8999 10 15.8002 10 15.7002V14.2002ZM15 14.2002C15 14.1002 14.9 14 14.8 14H12.3C12.2 14 12.1 14.1002 12.1 14.2002V15.7002C12.1 15.8002 12.2 15.8999 12.3 15.8999H14.8C14.9 15.8999 15 15.8002 15 15.7002V14.2002ZM12 0.5C12 0.2 11.8 0 11.5 0H8.5C8.2 0 8 0.2 8 0.5V10H12V0.5Z"
          fill="#A9A9A9"/>
</svg>
