<svg width="22" height="24" viewBox="0 0 22 24" fill="none" xmlns="http://www.w3.org/2000/svg">
<path d="M21.9687 1.2002C21.4687 6.6002 17.4687 11.9001 14.0687 15.4001C13.6687 15.8001 13.1688 16 12.6688 16H10.0687C9.46875 16 9.06875 16.4 9.06875 17C9.06875 17.6 9.46875 18 10.0687 18H11.0687C11.6687 18 12.0687 18.4 12.0687 19C12.0687 19.6 11.6687 20 11.0687 20C11.0687 20 11.0687 20 10.0687 20C7.96875 20 5.86876 19.5002 4.76876 19.2002C3.76876 20.5002 2.86875 21.9 1.86875 23.5C1.66875 23.8 1.36874 24 0.968742 24C0.768742 24 0.568742 24.0001 0.468742 23.9001C-0.0312583 23.6001 -0.131246 23 0.168754 22.5C0.568754 21.8 0.968751 21.2001 1.36875 20.6001C4.46875 16.5001 7.56875 13.3001 12.0687 9.90015C12.4687 9.60015 12.5688 8.9 12.2688 8.5C11.9688 8.1 11.2687 8.00005 10.8687 8.30005C7.36874 11 4.66875 13.5 2.16875 16.5C1.56875 15 1.06875 13.0001 1.06875 11.1001C1.06875 10.5001 1.46875 10.1001 2.06875 10.1001C2.66875 10.1001 3.06875 10.5001 3.06875 11.1001C3.06875 11.7001 3.46875 12.1001 4.06875 12.1001C4.66875 12.1001 5.06875 11.7001 5.06875 11.1001V8.6001C5.06875 8.0001 5.26875 7.5001 5.66875 7.1001C8.96875 4.1001 14.2687 0.4 20.9687 0C21.5687 0.1 22.0687 0.600195 21.9687 1.2002Z" fill="#4D0685"/>
</svg>
