<svg width="17" height="19" viewBox="0 0 17 19" fill="none" xmlns="http://www.w3.org/2000/svg">
<path d="M13.0529 14.6458L14.8506 13.3791V16.2292C14.8506 17.7333 13.6 19 12.1149 19H2.73563C1.25057 19 0 17.7333 0 16.2292V2.77083C0 1.26667 1.25057 0 2.73563 0H12.1149C13.6 0 14.8506 1.26667 14.8506 2.77083V5.62091L13.0529 4.35417C12.8965 4.19583 12.6621 4.11674 12.5057 4.03758V2.69159C12.5057 2.45409 12.3494 2.29576 12.1149 2.29576H2.73563C2.50115 2.29576 2.34483 2.45409 2.34483 2.69159V16.1499C2.34483 16.3874 2.50115 16.5458 2.73563 16.5458H12.1149C12.3494 16.5458 12.5057 16.3874 12.5057 16.1499V14.8041C12.6621 14.8041 12.8965 14.725 13.0529 14.6458ZM16.6483 8.86663L12.1931 5.69996C11.646 5.30413 10.9425 5.7 10.9425 6.33333V7.91667H5.47126C5.0023 7.91667 4.68965 8.23333 4.68965 8.70833V10.2917C4.68965 10.7667 5.0023 11.0833 5.47126 11.0833H10.9425V12.6667C10.9425 13.3 11.646 13.6959 12.1931 13.3L16.6483 10.1334C17.1172 9.81671 17.1172 9.1833 16.6483 8.86663Z" fill="#A9A9A9"/>
</svg>
