<svg width="17" height="17" viewBox="0 0 17 17" fill="none" xmlns="http://www.w3.org/2000/svg">
<path d="M5.71616 5.12936L11.8777 11.2112L9.42795 15.7543C9.35371 15.9009 9.05677 16.1207 8.9083 16.1207L1.0393 17L5.7904 12.3103C6.31005 12.4569 6.82969 12.3103 7.20087 11.944C7.79476 11.3577 7.79476 10.4785 7.20087 9.89229C6.60699 9.30608 5.71616 9.30608 5.12227 9.89229C4.75109 10.2587 4.60262 10.8448 4.75109 11.2845L0 15.9741L0.890828 8.20691C0.890828 7.98708 1.11354 7.76729 1.26201 7.69401L5.71616 5.12936ZM7.86899 2.49136C7.49781 2.41808 7.12664 2.49138 6.82969 2.78448C6.53275 3.07758 6.45851 3.51724 6.60699 3.88362L13.0655 10.2587C13.4367 10.4052 13.8821 10.3319 14.179 10.0388C14.476 9.7457 14.5502 9.3793 14.476 9.01292L7.86899 2.49136ZM16.7773 4.3966L12.5459 0.219827C12.2489 -0.0732758 11.8035 -0.0732758 11.5066 0.219827L9.57642 2.12498L14.8472 7.32763L16.7773 5.42239C17.0742 5.12929 17.0742 4.6897 16.7773 4.3966Z" fill="#A9A9A9"/>
</svg>
