<svg width="23" height="24" viewBox="0 0 23 24" fill="none" xmlns="http://www.w3.org/2000/svg">
<path d="M23 20.2V23C23 23.6 22.6 24 22 24H1C0.4 24 0 23.6 0 23V20.2C0 19.6 0.399994 19 0.899994 18.8L6 16.1C6.8 17.8 8.6 18.9 10.5 18.9H12.4C14.3 18.9 16.1 17.8 16.9 16.1L22 18.8C22.6 19.1 23 19.7 23 20.2ZM5.60001 10.1C5.80001 10.7 6.29999 11.2 6.89999 11.6L7.60001 14.7C7.90001 16.1 9.1 17.1 10.5 17.1H12.4C13.8 17.1 15 16.1 15.3 14.7L16 11.6C16.6 11.3 17.1 10.7 17.3 10.1L17.6 9.3C17.9 8.5 17.6 7.8 17 7.6C17 7.6 17 6 17 5C17 2 15 0 11.5 0C8 0 6 2 6 5C6 7 6 7.6 6 7.6C5.4 7.9 5.09999 8.6 5.39999 9.3L5.60001 10.1Z" fill="#C4C4C4"/>
</svg>
